<svg width="480" height="361" viewBox="0 0 480 361" fill="none" xmlns="http://www.w3.org/2000/svg">
<g opacity="0.1">
<mask id="mask0_1_470" style="mask-type:alpha" maskUnits="userSpaceOnUse" x="0" y="0" width="480" height="361">
<rect x="479.5" y="0.5" width="360" height="479" transform="rotate(90 479.5 0.5)" fill="url(#paint0_linear_1_470)" stroke="#6246E5"/>
</mask>
<g mask="url(#mask0_1_470)">
<path d="M301.185 327.189C231.853 327.189 175.646 270.903 175.646 201.471C175.646 132.038 231.853 75.7529 301.185 75.7529C370.518 75.7529 426.725 132.038 426.725 201.471C426.725 270.903 370.518 327.189 301.185 327.189Z" stroke="#6246E5"/>
<path d="M314.453 332.171C236.877 332.171 173.988 269.194 173.988 191.506C173.988 113.818 236.877 50.8413 314.453 50.8413C392.029 50.8413 454.918 113.818 454.918 191.506C454.918 269.194 392.029 332.171 314.453 332.171Z" stroke="#6246E5"/>
<path d="M325.232 337.153C240.329 337.153 171.5 268.228 171.5 183.202C171.5 98.1771 240.329 29.2517 325.232 29.2517C410.136 29.2517 478.965 98.1771 478.965 183.202C478.965 268.228 410.136 337.153 325.232 337.153Z" stroke="#6246E5"/>
<path d="M340.988 340.475C249.673 340.475 175.646 266.345 175.646 174.899C175.646 83.453 249.673 9.32274 340.988 9.32275C432.303 9.32275 506.329 83.453 506.329 174.899C506.329 266.345 432.303 340.475 340.988 340.475Z" stroke="#6246E5"/>
<path d="M356.328 343.796C258.831 343.796 179.792 264.647 179.792 167.01C179.792 69.3731 258.831 -9.77614 356.328 -9.77613C453.825 -9.77613 532.864 69.3731 532.864 167.01C532.864 264.647 453.825 343.796 356.328 343.796Z" stroke="#6246E5"/>
<path d="M373.741 347.948C266.627 347.948 179.792 260.992 179.792 153.724C179.792 46.4564 266.627 -40.5 373.741 -40.5C480.856 -40.5 567.69 46.4565 567.69 153.724C567.69 260.992 480.856 347.948 373.741 347.948Z" stroke="#6246E5"/>
</g>
</g>
<defs>
<linearGradient id="paint0_linear_1_470" x1="736.035" y1="13.4669" x2="487.704" y2="484.066" gradientUnits="userSpaceOnUse">
<stop stop-color="#747DEF"/>
<stop offset="1" stop-color="#5E3BE1"/>
</linearGradient>
</defs>
</svg>
